<svg width="174" height="123" viewBox="0 0 174 123" fill="none" xmlns="http://www.w3.org/2000/svg">
<g clip-path="url(#clip0_23_62)">
<path d="M104.537 118.825C105.38 119.905 107.976 120.867 110.864 121.459C112.303 121.788 113.809 121.986 115.191 122.197L118.742 122.579C121.54 122.855 125.024 122.579 128.036 122.579C129.486 122.658 135.442 123.606 136.689 122.394C136.774 122.334 136.85 122.259 136.914 122.17C136.953 122.129 136.983 122.078 137.002 122.021C137.022 121.964 137.03 121.902 137.027 121.841C137.073 119.208 136.692 116.589 135.903 114.124C140.617 112.219 145.216 109.944 149.669 107.316C151.917 105.999 154.086 104.589 156.233 103.114C158.4 101.662 160.49 100.057 162.492 98.3078C166.627 94.9673 169.977 90.461 172.236 85.2044C173.257 82.5148 173.84 79.625 173.955 76.684C174.056 73.7869 173.788 70.8884 173.157 68.0845C171.168 59.327 166.751 51.6627 161.818 44.8015C156.734 38.0038 151.003 31.9107 144.736 26.6412C138.521 21.2945 131.992 16.5535 125.418 11.918C118.714 7.09968 111.373 3.62381 103.694 1.63297C96.2019 -0.177071 88.5082 -0.546185 80.9146 0.539985C77.0999 1.0531 73.3363 1.99675 69.6765 3.35804C65.9559 4.71893 62.4239 6.70644 59.1913 9.25797C55.8826 11.8654 53.114 15.3076 51.0886 19.3322L50.3581 20.8731C50.1384 21.3957 49.9432 21.932 49.7737 22.4797L49.2118 24.0995C49.032 24.6526 48.9309 25.2189 48.796 25.7852L48.4139 27.4709C48.2902 28.024 48.2228 28.5507 48.1329 29.1038C47.9531 30.1837 47.7733 31.2767 47.6384 32.3566C46.4135 41.0746 45.9752 49.8188 45.5032 58.4973C45.1246 66.6082 44.3138 74.6836 43.0758 82.6761C42.7914 84.4703 42.2641 86.1996 41.5137 87.7987C41.2494 88.4 40.8777 88.9277 40.4239 89.3458C39.9702 89.7639 39.445 90.0628 38.884 90.222C37.7087 90.386 36.5205 90.0797 35.5125 89.3528C34.1373 88.4569 32.8519 87.3834 31.6803 86.1526C20.903 75.3539 11.4517 63.4884 2.05657 52.5712C0.179806 50.3851 -0.809142 52.5713 1.01144 55.0866C5.79888 61.6053 10.71 67.9397 15.8683 74.037C18.4456 77.0923 21.0865 80.0729 23.7912 82.9789C25.1472 84.4275 26.5182 85.8586 27.9043 87.2721C29.281 88.7256 30.7255 90.0885 32.231 91.3545C33.7778 92.6785 35.5742 93.5459 37.4679 93.883C38.4737 94.015 39.492 93.8707 40.442 93.4615C41.3919 93.0524 42.2475 92.3896 42.9409 91.5257C44.2312 89.7847 45.1482 87.7079 45.6156 85.4679C46.0943 83.3348 46.4695 81.1715 46.7394 78.9886C47.8632 70.4023 48.3577 61.7633 48.8859 53.256C49.2748 44.6862 50.1949 36.1608 51.6392 27.7474C52.4376 23.7646 54.0803 20.0822 56.4154 17.0408C58.8174 13.9801 61.6877 11.4742 64.8778 9.65294C71.4706 6.03476 78.6179 4.0103 85.8931 3.70046C93.198 3.16811 100.527 4.08536 107.571 6.41338C114.439 8.86666 120.977 12.4444 126.991 17.0408C133.187 21.3536 139.189 26.0393 144.972 31.0792C150.666 36.0322 155.858 41.732 160.447 48.0675C164.863 54.3887 168.707 61.4604 170.336 68.9274C171.504 73.7314 171.178 78.8654 169.415 83.4134C167.606 87.8515 164.279 91.6178 160.424 94.7784C158.461 96.3801 156.424 97.8529 154.322 99.1901C152.198 100.586 150.04 101.929 147.838 103.141C143.45 105.626 138.948 107.824 134.352 109.725C134.048 109.08 133.734 108.409 133.397 107.803C132.644 106.367 132.419 104.339 130.452 104.51C129.883 104.591 129.324 104.754 128.789 104.998C125.699 106.315 122.203 109.133 119.36 110.713C118.663 111.108 114.865 113.084 111.235 114.782C107.605 116.481 104.054 118.154 104.537 118.825Z" fill="white"/>
</g>
<defs>
<clipPath id="clip0_23_62">
<rect width="174" height="123" fill="white"/>
</clipPath>
</defs>
</svg>
