<svg width="62" height="67" viewBox="0 0 62 67" fill="none" xmlns="http://www.w3.org/2000/svg">
<path d="M34.5093 0.83757C31.5458 0.83757 29.4681 2.79636 29.0404 5.74951C28.246 4.99608 27.1767 4.60433 26.0463 4.60433C22.8688 4.60433 20.7607 6.77397 20.7607 10.1189V13.4638C19.9358 12.62 18.7137 12.1679 17.3999 12.1679C15.9029 12.1679 14.6502 12.7707 13.9476 13.8554L17.2472 17.11V16.8689C17.3389 16.4168 17.6444 16.1156 18.1637 16.1156C19.4164 16.1156 20.333 17.0196 20.333 18.2852V20.1836L24.2132 24.0407V10.6613C24.2132 9.36558 25.0381 8.49156 26.3212 8.49156C27.5739 8.49156 28.4905 9.36558 28.4905 10.6613V28.1992L32.3707 32.0262V6.92466C32.3707 5.659 33.2567 4.72493 34.5093 4.72493C35.7314 4.72493 36.648 5.659 36.648 6.92466V32.1468C36.648 33.2014 37.5035 34.015 38.5423 34.015C39.6116 34.015 40.5282 33.2014 40.5282 32.1468V10.6613C40.5282 9.36558 41.3837 8.49156 42.6668 8.49156C43.9194 8.49156 44.7749 9.36558 44.7749 10.6613V40.313C44.7749 41.6992 45.6916 42.6936 46.9442 42.6936C48.044 42.6936 48.9607 42.2115 49.6633 40.7047L53.8185 31.5442C54.3989 30.2484 55.4684 29.5854 56.6292 30.0072C57.8513 30.4894 58.2487 31.6344 57.6679 33.2014L52.2603 48.0876C51.9242 48.9916 51.5882 49.8354 51.2215 50.6189L54.2157 53.572C54.8573 52.2762 55.4684 50.86 55.9877 49.3833L61.3953 34.4671C62.74 30.7003 61.518 27.5965 58.34 26.4514C55.4684 25.4269 52.6575 26.6322 51.3438 29.7361L49.3273 34.5575C49.2661 34.6781 49.2051 34.7685 49.0829 34.7685C48.9301 34.7685 48.8384 34.6479 48.8384 34.4972V10.3299C48.8384 6.80418 46.6082 4.60433 43.1863 4.60433C41.9641 4.60433 40.8032 5.02617 39.9782 5.80968C39.5505 2.73606 37.5646 0.83757 34.5093 0.83757ZM55.4378 66.2584C56.3238 67.1624 57.882 67.1624 58.768 66.2584C59.6847 65.3845 59.6847 63.9079 58.768 62.9738L4.50683 9.48606C3.59029 8.58207 2.06264 8.58207 1.1461 9.48606C0.260058 10.39 0.260058 11.8968 1.1461 12.7707L55.4378 66.2584ZM46.6387 62.5519L43.614 59.5988C40.7114 61.4068 37.2896 62.2506 33.4705 62.2506C22.655 62.2506 16.0862 55.4101 16.0862 43.2661V32.4782L12.0533 28.5005V43.7484C12.0533 57.851 20.6997 66.4392 33.6233 66.4392C38.695 66.4392 43.064 65.1435 46.6387 62.5519Z" fill="#D5F902"/>
</svg>
