<svg width="30" height="30" viewBox="0 0 30 30" fill="none" xmlns="http://www.w3.org/2000/svg">
<path fill-rule="evenodd" clip-rule="evenodd" d="M16.0715 0H13.9286V9.48797L10.3743 0.690873L8.38749 1.4936L12.0338 10.5186L5.15102 3.63578L3.63579 5.15102L10.2327 11.7479L1.68362 8.01272L0.825689 9.97634L9.87158 13.9286H0V16.0715H9.87156L0.825692 20.0237L1.68362 21.9873L10.2326 18.2522L3.63579 24.849L5.15102 26.3642L12.0338 19.4814L8.38749 28.5065L10.3743 29.3091L13.9286 20.5121V30H16.0715V20.5121L19.6257 29.3091L21.6124 28.5065L17.9663 19.4814L24.849 26.3642L26.3642 24.849L19.7673 18.2522L28.3164 21.9873L29.1742 20.0237L20.1285 16.0715H30V13.9286H20.1283L29.1742 9.97634L28.3164 8.01272L19.7673 11.7479L26.3642 5.151L24.849 3.63578L17.9663 10.5186L21.6124 1.4936L19.6257 0.690873L16.0715 9.48797V0Z" fill="url(#paint0_linear_23_22)"/>
<defs>
<linearGradient id="paint0_linear_23_22" x1="2.1" y1="3.9" x2="26.85" y2="26.925" gradientUnits="userSpaceOnUse">
<stop stop-color="#D5F902"/>
<stop offset="1" stop-color="#D5F902"/>
</linearGradient>
</defs>
</svg>
